<svg width="61" height="60" viewBox="0 0 61 60" fill="none" xmlns="http://www.w3.org/2000/svg">
<g clip-path="url(#clip0_117_3326)">
<path d="M57.119 21.2612C56.3273 18.8097 56.6648 15.1296 54.607 12.2882C52.533 9.42438 48.9259 8.61039 46.889 7.1207C44.8736 5.64672 42.9986 2.43918 39.6085 1.33293C36.314 0.257852 32.9451 1.71672 30.333 1.71672C27.7213 1.71672 24.3526 0.2575 21.0575 1.33281C17.668 2.43883 15.7914 5.64707 13.7773 7.12035C11.7427 8.60828 8.13289 9.42449 6.05926 12.2879C4.0032 15.127 4.3373 18.8154 3.54699 21.2611C2.79488 23.5888 0.333008 26.3825 0.333008 30.0003C0.333008 33.6203 2.79207 36.4032 3.54699 38.7393C4.33871 41.1909 4.00121 44.8709 6.05902 47.7123C8.13289 50.5763 11.7399 51.3902 13.777 52.88C15.792 54.3537 17.6674 57.5615 21.0575 58.6676C24.3498 59.742 27.7239 58.2838 30.333 58.2838C32.9384 58.2838 36.3205 59.7405 39.6085 58.6677C42.9982 57.5617 44.8735 54.3542 46.8887 52.8802C48.9233 51.3923 52.5331 50.5761 54.6068 47.7127C56.6629 44.8735 56.3286 41.1854 57.119 38.7394C57.8711 36.4116 60.333 33.618 60.333 30.0003C60.333 26.3805 57.8745 23.5984 57.119 21.2612ZM52.6587 37.298C51.7359 40.1545 51.9777 43.3512 50.8105 44.963C49.6276 46.5962 46.5199 47.3423 44.1219 49.0963C41.7501 50.8308 40.0878 53.5804 38.1545 54.2112C36.3254 54.8082 33.3446 53.5961 30.3331 53.5961C27.2996 53.5961 24.3495 54.8107 22.5117 54.2112C20.5786 53.5804 18.9186 50.8327 16.5443 49.0962C14.1604 47.3528 11.035 46.5914 9.85555 44.9628C8.69211 43.3564 8.92473 40.1375 8.0075 37.2981C7.10844 34.5162 5.02051 32.1074 5.02051 30.0003C5.02051 27.891 7.10656 25.4905 8.00727 22.7025C8.93012 19.8462 8.68836 16.6492 9.85555 15.0375C11.0377 13.4054 14.1478 12.6569 16.5443 10.9042C18.9235 9.1641 20.5754 6.42109 22.5114 5.78934C24.339 5.19309 27.3295 6.40445 30.3329 6.40445C33.3719 6.40445 36.3146 5.18898 38.1543 5.78934C40.0872 6.42004 41.7486 9.16879 44.1219 10.9043C46.5054 12.6477 49.631 13.4091 50.8105 15.0377C51.9741 16.6444 51.7402 19.86 52.6585 22.7023V22.7024C53.5576 25.4843 55.6455 27.8931 55.6455 30.0003C55.6455 32.1095 53.5595 34.51 52.6587 37.298ZM41.131 22.4774C42.0464 23.3928 42.0464 24.8767 41.131 25.792L29.3998 37.5231C28.4845 38.4385 27.0004 38.4384 26.0852 37.5231L19.5351 30.973C18.6198 30.0577 18.6196 28.5737 19.535 27.6585C20.4504 26.7433 21.9345 26.7432 22.8495 27.6585L27.7425 32.5513L37.8162 22.4775C38.7316 21.5622 40.2157 21.5622 41.131 22.4774Z" fill="#242424"/>
</g>
<defs>
<clipPath id="clip0_117_3326">
<rect width="60" height="60" fill="white" transform="translate(0.333008)"/>
</clipPath>
</defs>
</svg>
