<svg width="61" height="60" viewBox="0 0 61 60" fill="none" xmlns="http://www.w3.org/2000/svg">
<g clip-path="url(#clip0_117_3334)">
<path d="M56.0149 31.1019V3.77964C56.0149 2.80489 55.2247 2.01465 54.2499 2.01465H6.9621C5.98736 2.01465 5.19711 2.80489 5.19711 3.77964V33.28C4.34568 33.404 3.51331 33.7346 2.77696 34.2812C0.455644 35.9273 -0.0933855 39.6109 1.85104 41.8827L9.80091 51.5204C14.7219 57.2798 19.9495 57.9854 27.7208 57.9854C34.3898 57.9854 37.3713 58.0148 43.1835 56.6905L48.8429 55.3369C49.7606 56.6184 51.2175 57.4485 52.8552 57.4485H55.6432C58.4133 57.4485 60.667 55.0744 60.667 52.1561V36.3784C60.6671 33.592 58.6119 31.3031 56.0149 31.1019ZM48.0817 34.7326L45.73 33.5382C41.8634 31.5865 37.3929 31.5142 33.4652 33.3403C32.3936 33.7618 30.0564 35.1759 28.8441 35.1286H20.6837C17.9769 35.1286 15.7747 37.3307 15.7747 40.0376V41.3247C15.7595 41.3087 15.7436 41.2936 15.7287 41.2773L9.90128 34.9519C9.54864 34.5692 9.15245 34.2489 8.72721 33.9919V16.481H23.1711V22.951C23.1711 23.9257 23.9613 24.7159 24.9361 24.7159H36.0732C37.048 24.7159 37.8382 23.9257 37.8382 22.951V16.481H52.4851V31.1018C50.4229 31.2611 48.7033 32.7364 48.0817 34.7326ZM26.7009 16.481H34.3081V21.186H26.7009V16.481ZM52.485 12.951H37.8382V5.54463H52.4851V12.951H52.485ZM34.3083 5.54463V12.9511H26.701V5.54463H34.3083ZM23.1709 5.54463V12.9511H8.72709V5.54463H23.1709ZM42.3643 53.2568C36.9952 54.4865 33.7616 54.4367 27.7842 54.4367C20.4889 54.4367 16.9639 54.3188 12.5242 49.274L4.57431 39.6363C3.1915 37.8357 5.69613 35.7101 7.3051 37.3435L13.1325 43.669C14.6726 45.2941 16.6107 46.1885 18.9994 46.2411H35.1559C36.1307 46.2411 36.9209 45.4508 36.9209 44.4761C36.9209 43.5013 36.1307 42.7111 35.1559 42.7111H19.3046V40.0373C19.3046 39.277 19.9231 38.6583 20.6836 38.6583H28.844C30.6824 38.79 33.3359 37.2549 34.9533 36.541C37.895 35.1733 41.2433 35.2274 44.1354 36.6872L47.8317 38.5646V51.9489L42.3643 53.2568ZM57.1371 52.156C57.1371 53.1278 56.467 53.9184 55.6433 53.9184H52.8554C52.0317 53.9184 51.3617 53.1278 51.3617 52.156V36.3784C51.3617 35.4066 52.0318 34.6159 52.8554 34.6159H55.6433C56.467 34.6159 57.1371 35.4065 57.1371 36.3784V52.156Z" fill="#242424"/>
</g>
<defs>
<clipPath id="clip0_117_3334">
<rect width="60" height="60" fill="white" transform="translate(0.666992)"/>
</clipPath>
</defs>
</svg>
